<?xml version="1.0" encoding="UTF-8" standalone="no"?>
<!-- Generator: Adobe Illustrator 12.0.0, SVG Export Plug-In . SVG Version: 6.00 Build 51448)  -->

<svg
   version="1.1"
   id="Layer_1"
   width="448"
   height="384"
   viewBox="0 0 448 384"
   overflow="visible"
   enable-background="new 0 0 448 384"
   xml:space="preserve"
   xmlns="http://www.w3.org/2000/svg"
   xmlns:svg="http://www.w3.org/2000/svg"><defs
   id="defs709">
	
	
	
</defs>
<g
   id="g680">
		<path
   fill-rule="evenodd"
   clip-rule="evenodd"
   fill="#ffffff"
   d="M 224,384 C 199.97559,364.60937 169.41016,352.99805 136.13184,352.99805 L 105,353 C 47.009277,353 0,305.99023 0,248 0,226.05078 6.793457,205.58789 18.30957,188.73877 26.948242,176.07324 32,160.76367 32,144.27588 32,118.25 19.416016,95.164551 0,80.771484 L 79.999023,0 C 100.5127,13.981445 125.30176,22.154785 152,22.154785 c 26.69775,0 51.48633,-8.172851 72,-22.1542967 20.51367,13.9814457 45.30176,22.1542967 72,22.1542967 26.69824,0 51.4873,-8.17334 72.00098,-22.154785 L 448,80.771484 C 428.58398,95.164551 416,118.25 416,144.27588 c 0,16.48779 5.05176,31.79736 13.69043,44.46289 C 441.20605,205.58789 448,226.05078 448,248 c 0,57.99023 -47.00977,105 -105,105 l -31.13184,-0.002 C 278.58984,352.99805 248.02344,364.60937 224,384 Z"
   id="path676" />
		
			<path
   fill-rule="evenodd"
   clip-rule="evenodd"
   fill="none"
   stroke="#000000"
   stroke-width="0"
   stroke-linecap="round"
   stroke-linejoin="round"
   stroke-miterlimit="3.86369"
   d="M 224,384 C 199.97559,364.60937 169.41016,352.99805 136.13184,352.99805 L 105,353 C 47.009277,353 0,305.99023 0,248 0,226.05078 6.793457,205.58789 18.30957,188.73877 26.948242,176.07324 32,160.76367 32,144.27588 32,118.25 19.416016,95.164551 0,80.771484 L 79.999023,0 C 100.5127,13.981445 125.30176,22.154785 152,22.154785 c 26.69775,0 51.48633,-8.172851 72,-22.1542967 20.51367,13.9814457 45.30176,22.1542967 72,22.1542967 26.69824,0 51.4873,-8.17334 72.00098,-22.154785 L 448,80.771484 C 428.58398,95.164551 416,118.25 416,144.27588 c 0,16.48779 5.05176,31.79736 13.69043,44.46289 C 441.20605,205.58789 448,226.05078 448,248 c 0,57.99023 -47.00977,105 -105,105 l -31.13184,-0.002 C 278.58984,352.99805 248.02344,364.60937 224,384 Z"
   id="path678" />
	</g><g
   id="g684">
		<path
   fill-rule="evenodd"
   clip-rule="evenodd"
   d="M 104.99951,332 C 58.607422,332 21,294.39258 21,248 21,230.43262 26.43457,214.06836 35.652344,200.58008 46.594238,184.53857 53,165.11914 53,144.27588 53,119.98242 44.321777,97.703125 29.934082,80.390625 L 83.370117,26.438477 C 103.92383,37.120117 127.2793,43.154785 152,43.154785 c 26.08252,0 50.64551,-6.718262 72,-18.522949 21.35449,11.804687 45.91699,18.522949 72,18.522949 24.7207,0 48.07617,-6.034668 68.62988,-16.716308 l 53.43555,53.952148 C 403.67773,97.703613 395,119.98291 395,144.27588 c 0,20.84326 6.40527,40.26269 17.34766,56.3042 C 421.56543,214.06836 427,230.43164 427,248 c 0,46.39258 -37.60742,84 -84,84 l -31.13086,-0.002 c -32.39648,0 -62.59961,9.58789 -87.86914,26.07226 C 198.72949,341.58589 168.52686,331.998 136.13086,331.998 Z M 136.13135,343.99805 105,344 C 51.979492,344 9,301.01953 9,248 9,227.92773 15.210938,209.22266 25.742187,193.81348 35.368164,179.70068 41,162.62988 41,144.27588 41,118.99219 30.331055,96.199707 13.274414,80.158203 L 81.269531,11.506836 C 101.91992,23.978516 126.13281,31.154785 152,31.154785 c 26.39844,0 51.07471,-7.474609 72,-20.423828 20.9248,12.949219 45.60156,20.423828 72,20.423828 25.86719,0 50.08008,-7.176269 70.73047,-19.647949 l 67.99512,68.651367 C 417.66895,96.199707 407,118.99219 407,144.27588 c 0,18.354 5.63184,35.4248 15.25781,49.5376 C 432.78906,209.22266 439,227.92773 439,248 c 0,53.01953 -42.98047,96 -96,96 l -31.13184,-0.002 C 279.01953,343.998 248.63477,354.63862 224,372.65229 199.36523,354.63862 168.98047,343.998 136.13135,343.998 Z"
   id="path682" />
	</g>

</svg>
